{
	"asset":{
		"version":"2.0",
		"generator":"MAXON CINEMA 4D Studio (RC - R19) 19.024"
	},
	"scenes":[{
		"nodes":[0,
		1]
	}],
	"nodes":[{
		"name":"口琴",
		"translation":[0.002759660826995969,
		0.21270938217639924,
		0.0037673262413591148],
		"rotation":[0.0,
		0.0,
		0.0,
		-1.0],
		"scale":[1.0,
		1.0,
		1.0],
		"children":[2,
		3,
		4]
	},
	{
		"name":"Cinema_4D_编辑器",
		"scale":[1.0,
		1.0,
		1.0],
		"camera":0,
		"translation":[7.293765068054199,
		0.5821775197982788,
		-1.565666675567627],
		"rotation":[0.012634319253265858,
		-0.7872429490089417,
		-0.01613863743841648,
		-0.6163022518157959]
	},
	{
		"name":"两侧金属",
		"mesh":0,
		"translation":[0.0,
		-0.16436508297920228,
		0.09242934733629227],
		"rotation":[0.0,
		0.0,
		0.0,
		-1.0],
		"scale":[1.0,
		1.0,
		1.0]
	},
	{
		"name":"绿色主体",
		"mesh":1,
		"translation":[0.0,
		-0.16436508297920228,
		-0.02144477888941765],
		"rotation":[0.0,
		0.0,
		0.0,
		-1.0],
		"scale":[1.0,
		1.0,
		1.0]
	},
	{
		"name":"螺丝",
		"mesh":2,
		"translation":[2.3762736320495607,
		-0.16436508297920228,
		-0.10837794095277786],
		"rotation":[-0.7071067690849304,
		0.0,
		0.0,
		-0.7071067690849304],
		"scale":[0.9900000095367432,
		1.0,
		1.0]
	}],
	"meshes":[{
		"name":"两侧金属",
		"primitives":[{
			"attributes":{
				"POSITION":1,
				"NORMAL":2,
				"TEXCOORD_0":3
			},
			"indices":0,
			"material":0
		}]
	},
	{
		"name":"绿色主体",
		"primitives":[{
			"attributes":{
				"POSITION":5,
				"NORMAL":6,
				"TEXCOORD_0":7
			},
			"indices":4,
			"material":1
		}]
	},
	{
		"name":"螺丝",
		"primitives":[{
			"attributes":{
				"POSITION":9,
				"NORMAL":10,
				"TEXCOORD_0":11
			},
			"indices":8,
			"material":2
		}]
	}],
	"cameras":[{
		"type":"perspective",
		"perspective":{
			"znear":0.009999999776482582,
			"zfar":10000000000.0,
			"aspectRatio":1.5,
			"yfov":0.6435011029243469
		}
	}],
	"accessors":[{
		"bufferView":0,
		"type":"SCALAR",
		"componentType":5123,
		"count":1776,
		"byteOffset":0,
		"min":[0],
		"max":[1775]
	},
	{
		"bufferView":1,
		"type":"VEC3",
		"componentType":5126,
		"count":1776,
		"byteOffset":0,
		"min":[-2.480881452560425,
		-0.42575743794441225,
		-0.31214311718940737],
		"max":[2.480881452560425,
		0.42575743794441225,
		0.08439484983682633]
	},
	{
		"bufferView":1,
		"type":"VEC3",
		"componentType":5126,
		"count":1776,
		"byteOffset":12,
		"min":[-1.0,
		-1.0,
		-1.0],
		"max":[1.0,
		1.0,
		1.0]
	},
	{
		"bufferView":1,
		"type":"VEC2",
		"componentType":5126,
		"count":1776,
		"byteOffset":24,
		"min":[0.07023896276950836,
		0.2478390634059906],
		"max":[0.9297610521316528,
		0.8506182432174683]
	},
	{
		"bufferView":2,
		"type":"SCALAR",
		"componentType":5123,
		"count":4308,
		"byteOffset":0,
		"min":[0],
		"max":[4307]
	},
	{
		"bufferView":3,
		"type":"VEC3",
		"componentType":5126,
		"count":4308,
		"byteOffset":0,
		"min":[-2.552461624145508,
		-0.4637267589569092,
		-0.10606727749109268],
		"max":[2.552461624145508,
		0.4637267589569092,
		0.10606727749109268]
	},
	{
		"bufferView":3,
		"type":"VEC3",
		"componentType":5126,
		"count":4308,
		"byteOffset":12,
		"min":[-1.0,
		-1.0,
		-1.0],
		"max":[1.0,
		1.0,
		1.0]
	},
	{
		"bufferView":3,
		"type":"VEC2",
		"componentType":5126,
		"count":4308,
		"byteOffset":24,
		"min":[0.01429104246199131,
		0.024032585322856904],
		"max":[1.4458849430084229,
		0.9703876972198486]
	},
	{
		"bufferView":4,
		"type":"SCALAR",
		"componentType":5123,
		"count":10368,
		"byteOffset":0,
		"min":[0],
		"max":[10367]
	},
	{
		"bufferView":5,
		"type":"VEC3",
		"componentType":5126,
		"count":10368,
		"byteOffset":0,
		"min":[-4.825474739074707,
		-0.04539918527007103,
		-0.040941137820482257],
		"max":[0.040941137820482257,
		0.2192360907793045,
		0.040941137820482257]
	},
	{
		"bufferView":5,
		"type":"VEC3",
		"componentType":5126,
		"count":10368,
		"byteOffset":12,
		"min":[-0.9969189167022705,
		-1.0,
		-0.9969189167022705],
		"max":[0.9969189167022705,
		1.0,
		0.9969189167022705]
	},
	{
		"bufferView":5,
		"type":"VEC2",
		"componentType":5126,
		"count":10368,
		"byteOffset":24,
		"min":[0.0,
		0.24681159853935243],
		"max":[1.0286386013031006,
		0.7531883716583252]
	}],
	"bufferViews":[{
		"buffer":0,
		"byteOffset":0,
		"byteLength":3552,
		"target":34963
	},
	{
		"buffer":0,
		"byteOffset":3552,
		"byteLength":56832,
		"target":34962,
		"byteStride":32
	},
	{
		"buffer":1,
		"byteOffset":0,
		"byteLength":8616,
		"target":34963
	},
	{
		"buffer":1,
		"byteOffset":8616,
		"byteLength":137856,
		"target":34962,
		"byteStride":32
	},
	{
		"buffer":2,
		"byteOffset":0,
		"byteLength":20736,
		"target":34963
	},
	{
		"buffer":2,
		"byteOffset":20736,
		"byteLength":331776,
		"target":34962,
		"byteStride":32
	}],
	"buffers":[{
		"uri":"data:application/octet-stream;base64,",
		"byteLength":60384
	},
	{
		"uri":"data:application/octet-stream;base64,",
		"byteLength":146472
	},
	{
		"uri":"data:application/octet-stream;base64,",
		"byteLength":352512
	}],
	"materials":[{
		"pbrMetallicRoughness":{
			"baseColorFactor":[1.0,
			1.0,
			1.0,
			1.0],
			"metallicFactor":0.0,
			"roughnessFactor":0.37
		},
		"emissiveFactor":[0.0,
		0.0,
		0.0],
		"alphaMode":"OPAQUE",
		"doubleSided":false,
		"name":"Gold_1"
	},
	{
		"pbrMetallicRoughness":{
			"baseColorFactor":[0.047058823529411767,
			0.4549019607843137,
			0.10588235294117647,
			1.0],
			"metallicFactor":0.0,
			"roughnessFactor":0.0
		},
		"emissiveFactor":[0.0,
		0.0,
		0.0],
		"alphaMode":"OPAQUE",
		"doubleSided":false,
		"name":"Gold_2"
	},
	{
		"pbrMetallicRoughness":{
			"baseColorFactor":[0.0,
			0.0,
			0.0,
			1.0],
			"metallicFactor":0.0,
			"roughnessFactor":0.09000000000000008
		},
		"emissiveFactor":[0.0,
		0.0,
		0.0],
		"alphaMode":"OPAQUE",
		"doubleSided":false,
		"name":"Gold_3"
	}]
}