<svg width="32" height="32" viewBox="0 0 32 32" fill="none" xmlns="http://www.w3.org/2000/svg">
<g id="Group 82530">
<g id="Group 82527">
<path id="Union" d="M15.7959 5V3.295H15.7958L15.7959 5ZM26.1719 12.3457L24.5637 12.9121L24.8376 13.6898L25.6173 13.958L26.1719 12.3457ZM28.8516 16.1016H30.5566V16.1015L28.8516 16.1016ZM26.0869 19.8857L25.569 18.2613L24.7834 18.5118L24.492 19.2831L26.0869 19.8857ZM15.7959 27L15.7958 28.705H15.7959V27ZM5.43555 19.6992L7.04124 19.1258L6.8025 18.4573L6.15979 18.1557L5.43555 19.6992ZM3.14844 16.1016L1.44344 16.1015V16.1016H3.14844ZM5.35254 12.5439L6.11248 14.0702L6.74829 13.7536L6.97131 13.0793L5.35254 12.5439ZM15.7959 5V6.705C19.8433 6.705 23.2895 9.29402 24.5637 12.9121L26.1719 12.3457L27.7801 11.7793C26.0408 6.84064 21.3359 3.295 15.7959 3.295V5ZM26.1719 12.3457L25.6173 13.958C26.5099 14.265 27.1465 15.1112 27.1466 16.1017L28.8516 16.1016L30.5566 16.1015C30.5564 13.6097 28.9521 11.499 26.7265 10.7334L26.1719 12.3457ZM28.8516 16.1016H27.1466C27.1466 17.1101 26.4864 17.9688 25.569 18.2613L26.0869 19.8857L26.6048 21.5102C28.8939 20.7804 30.5566 18.6384 30.5566 16.1016H28.8516ZM26.0869 19.8857L24.492 19.2831C23.1636 22.7991 19.7695 25.295 15.7959 25.295V27V28.705C21.2355 28.705 25.8693 25.286 27.6819 20.4883L26.0869 19.8857ZM15.7959 27L15.796 25.295C11.7627 25.2948 8.32609 22.7239 7.04124 19.1258L5.43555 19.6992L3.82985 20.2726C5.5837 25.1841 10.2755 28.7048 15.7958 28.705L15.7959 27ZM5.43555 19.6992L6.15979 18.1557C5.38437 17.7918 4.85344 17.0069 4.85344 16.1016H3.14844H1.44344C1.44344 18.3788 2.78436 20.3386 4.7113 21.2428L5.43555 19.6992ZM3.14844 16.1016L4.85344 16.1017C4.85349 15.2147 5.36264 14.4436 6.11248 14.0702L5.35254 12.5439L4.5926 11.0177C2.72965 11.9452 1.44357 13.8715 1.44344 16.1015L3.14844 16.1016ZM5.35254 12.5439L6.97131 13.0793C8.19657 9.37453 11.6862 6.70515 15.796 6.705L15.7959 5L15.7958 3.295C10.1709 3.29521 5.40669 6.95025 3.73377 12.0086L5.35254 12.5439Z" fill="white"/>
<path id="Vector 18" d="M13 6C13 8.5 15 11 17 11.9986" stroke="white" stroke-width="3.14" stroke-linecap="round" stroke-linejoin="round"/>
</g>
</g>
</svg>
