<svg width="32" height="32" viewBox="0 0 32 32" fill="none" xmlns="http://www.w3.org/2000/svg">
<g id="Group 82535">
<g id="Group 82527">
<path id="Union" d="M15.7959 5V3.295H15.7958L15.7959 5ZM26.0957 12.1348L24.4995 12.7341L24.8913 13.7776L26.0044 13.8373L26.0957 12.1348ZM29.8516 16.1016H31.5566V16.1015L29.8516 16.1016ZM26.0146 20.0703L25.9577 18.3663L24.8437 18.4035L24.4309 19.4389L26.0146 20.0703ZM15.7959 27L15.7958 28.705H15.7959V27ZM5.56348 20.0342L7.14948 19.4084L6.7847 18.4839L5.80053 18.3457L5.56348 20.0342ZM2.14844 16.1016L0.443437 16.1015V16.1016H2.14844ZM5.47754 12.1816L5.7515 13.8645L6.73175 13.7049L7.07651 12.7735L5.47754 12.1816ZM15.7959 5V6.705C19.7766 6.705 23.176 9.20903 24.4995 12.7341L26.0957 12.1348L27.6919 11.5355C25.8857 6.72462 21.2444 3.295 15.7959 3.295V5ZM26.0957 12.1348L26.0044 13.8373C27.1972 13.9013 28.1465 14.8911 28.1466 16.1016L29.8516 16.1016L31.5566 16.1015C31.5564 13.0697 29.1806 10.5927 26.187 10.4322L26.0957 12.1348ZM29.8516 16.1016H28.1466C28.1466 17.327 27.1736 18.3256 25.9577 18.3663L26.0146 20.0703L26.0716 21.7744C29.1181 21.6725 31.5566 19.1732 31.5566 16.1016H29.8516ZM26.0146 20.0703L24.4309 19.4389C23.0617 22.8729 19.7102 25.295 15.7959 25.295V27V28.705C21.1548 28.705 25.7307 25.3863 27.5984 20.7018L26.0146 20.0703ZM15.7959 27L15.796 25.295C11.8702 25.2949 8.51081 22.8585 7.14948 19.4084L5.56348 20.0342L3.97747 20.66C5.83458 25.3666 10.4212 28.7048 15.7958 28.705L15.7959 27ZM5.56348 20.0342L5.80053 18.3457C4.70013 18.1912 3.85344 17.2438 3.85344 16.1016H2.14844H0.443437C0.443437 18.9686 2.56698 21.3352 5.32643 21.7226L5.56348 20.0342ZM2.14844 16.1016L3.85344 16.1016C3.85349 14.9764 4.67518 14.0397 5.7515 13.8645L5.47754 12.1816L5.20358 10.4988C2.50415 10.9382 0.443579 13.2773 0.443437 16.1015L2.14844 16.1016ZM5.47754 12.1816L7.07651 12.7735C8.38892 9.22797 11.7999 6.70515 15.796 6.705L15.7959 5L15.7958 3.295C10.3272 3.29521 5.67013 6.74977 3.87857 11.5898L5.47754 12.1816Z" fill="#333333"/>
<path id="Vector 18" d="M13 6C13 8.5 15 11 17 11.9986" stroke="#333333" stroke-width="3.14" stroke-linecap="round" stroke-linejoin="round"/>
</g>
</g>
</svg>
