<svg width="20" height="20" viewBox="0 0 20 20" fill="none" xmlns="http://www.w3.org/2000/svg">
<g id="Group 82174">
<g id="Group 82117">
<g id="Group 82114">
<g id="Mask group">
<mask id="mask0_11_22250" style="mask-type:alpha" maskUnits="userSpaceOnUse" x="2" y="2" width="10" height="10">
<path id="Star 2" d="M6.87017 2.35334C6.91456 2.23252 7.08544 2.23252 7.12983 2.35334C7.89975 4.44877 9.55123 6.10025 11.6467 6.87017C11.7675 6.91456 11.7675 7.08544 11.6467 7.12983C9.55123 7.89975 7.89975 9.55123 7.12983 11.6467C7.08544 11.7675 6.91456 11.7675 6.87017 11.6467C6.10025 9.55123 4.44877 7.89975 2.35334 7.12983C2.23252 7.08544 2.23252 6.91456 2.35334 6.87017C4.44877 6.10025 6.10025 4.44877 6.87017 2.35334Z" fill="url(#paint0_linear_11_22250)"/>
</mask>
<g mask="url(#mask0_11_22250)">
<path id="Star 3" d="M6.87017 2.35334C6.91456 2.23252 7.08544 2.23252 7.12983 2.35334C7.89975 4.44877 9.55123 6.10025 11.6467 6.87017C11.7675 6.91456 11.7675 7.08544 11.6467 7.12983C9.55123 7.89975 7.89975 9.55123 7.12983 11.6467C7.08544 11.7675 6.91456 11.7675 6.87017 11.6467C6.10025 9.55123 4.44877 7.89975 2.35334 7.12983C2.23252 7.08544 2.23252 6.91456 2.35334 6.87017C4.44877 6.10025 6.10025 4.44877 6.87017 2.35334Z" fill="#FF334D"/>
<g id="Group 82122">
<g id="Ellipse 27" style="mix-blend-mode:color-dodge" filter="url(#filter0_f_11_22250)">
<ellipse cx="9.16723" cy="9.7735" rx="2" ry="2.10904" transform="rotate(36.4311 9.16723 9.7735)" fill="#FFD56A"/>
</g>
<g id="Ellipse 29" filter="url(#filter1_f_11_22250)">
<ellipse cx="7.94417" cy="11.1927" rx="1.25722" ry="1.79734" transform="rotate(36.4311 7.94417 11.1927)" fill="#55D2FF"/>
</g>
<g id="Ellipse 30" filter="url(#filter2_f_11_22250)">
<ellipse cx="3.89026" cy="11.0879" rx="2.38413" ry="3.32113" transform="rotate(36.4311 3.89026 11.0879)" fill="url(#paint1_linear_11_22250)"/>
</g>
<g id="Vector 4" style="mix-blend-mode:plus-lighter" filter="url(#filter3_f_11_22250)">
<path d="M7.74526 2.92271C6.64787 4.62852 7.88551 5.81053 8.64151 6.18831C10.4415 7.08779 11.712 5.49194 12.1692 4.78118L10.5079 3.48135C10.0442 2.58438 8.84265 1.21689 7.74526 2.92271Z" fill="url(#paint2_linear_11_22250)"/>
</g>
</g>
</g>
</g>
</g>
<g id="Group 82115">
<g id="Mask group_2">
<mask id="mask1_11_22250" style="mask-type:alpha" maskUnits="userSpaceOnUse" x="12" y="13" width="6" height="6">
<path id="Star 2_2" d="M14.6565 13.1927C14.6807 13.1268 14.7739 13.1268 14.7981 13.1927C15.218 14.3357 16.1189 15.2365 17.2618 15.6565C17.3277 15.6807 17.3277 15.7739 17.2618 15.7981C16.1189 16.218 15.218 17.1189 14.7981 18.2618C14.7739 18.3277 14.6807 18.3277 14.6565 18.2618C14.2365 17.1189 13.3357 16.218 12.1927 15.7981C12.1268 15.7739 12.1268 15.6807 12.1927 15.6565C13.3357 15.2365 14.2365 14.3357 14.6565 13.1927Z" fill="url(#paint3_linear_11_22250)"/>
</mask>
<g mask="url(#mask1_11_22250)">
<path id="Star 3_2" d="M14.6565 13.1927C14.6807 13.1268 14.7739 13.1268 14.7981 13.1927C15.218 14.3357 16.1189 15.2365 17.2618 15.6565C17.3277 15.6807 17.3277 15.7739 17.2618 15.7981C16.1189 16.218 15.218 17.1189 14.7981 18.2618C14.7739 18.3277 14.6807 18.3277 14.6565 18.2618C14.2365 17.1189 13.3357 16.218 12.1927 15.7981C12.1268 15.7739 12.1268 15.6807 12.1927 15.6565C13.3357 15.2365 14.2365 14.3357 14.6565 13.1927Z" fill="#FF334D"/>
<g id="Ellipse 27_2" style="mix-blend-mode:color-dodge" filter="url(#filter4_f_11_22250)">
<ellipse cx="15.9095" cy="17.2401" rx="1.09091" ry="1.15038" transform="rotate(36.4311 15.9095 17.2401)" fill="#6AEBFF"/>
</g>
<g id="Ellipse 29_2" filter="url(#filter5_f_11_22250)">
<ellipse cx="15.2424" cy="18.0142" rx="0.685758" ry="0.980367" transform="rotate(36.4311 15.2424 18.0142)" fill="#6AFF6D"/>
</g>
<g id="Ellipse 30_2" style="mix-blend-mode:hard-light" filter="url(#filter6_f_11_22250)">
<ellipse cx="14.225" cy="13.6506" rx="0.685758" ry="0.980367" transform="rotate(36.4311 14.225 13.6506)" fill="#6A88FF"/>
</g>
<g id="Ellipse 28" filter="url(#filter7_f_11_22250)">
<ellipse cx="13.4611" cy="14.2606" rx="1.09091" ry="1.3348" transform="rotate(45.9189 13.4611 14.2606)" fill="#6AEBFF" fill-opacity="0.5"/>
</g>
<g id="Vector 4_2" style="mix-blend-mode:plus-lighter" filter="url(#filter8_f_11_22250)">
<path d="M15.1339 13.5033C14.5353 14.4337 15.2104 15.0785 15.6228 15.2845C16.6046 15.7752 17.2976 14.9047 17.547 14.517L16.6408 13.808C16.3879 13.3188 15.7325 12.5729 15.1339 13.5033Z" fill="url(#paint4_linear_11_22250)"/>
</g>
</g>
</g>
</g>
</g>
</g>
<defs>
<filter id="filter0_f_11_22250" x="4.52799" y="5.10209" width="9.27843" height="9.34282" filterUnits="userSpaceOnUse" color-interpolation-filters="sRGB">
<feFlood flood-opacity="0" result="BackgroundImageFix"/>
<feBlend mode="normal" in="SourceGraphic" in2="BackgroundImageFix" result="shape"/>
<feGaussianBlur stdDeviation="1.3" result="effect1_foregroundBlur_11_22250"/>
</filter>
<filter id="filter1_f_11_22250" x="3.87363" y="6.96491" width="8.14104" height="8.45558" filterUnits="userSpaceOnUse" color-interpolation-filters="sRGB">
<feFlood flood-opacity="0" result="BackgroundImageFix"/>
<feBlend mode="normal" in="SourceGraphic" in2="BackgroundImageFix" result="shape"/>
<feGaussianBlur stdDeviation="1.3" result="effect1_foregroundBlur_11_22250"/>
</filter>
<filter id="filter2_f_11_22250" x="-1.46096" y="5.46326" width="10.7024" height="11.2492" filterUnits="userSpaceOnUse" color-interpolation-filters="sRGB">
<feFlood flood-opacity="0" result="BackgroundImageFix"/>
<feBlend mode="normal" in="SourceGraphic" in2="BackgroundImageFix" result="shape"/>
<feGaussianBlur stdDeviation="1.3" result="effect1_foregroundBlur_11_22250"/>
</filter>
<filter id="filter3_f_11_22250" x="3.31079" y="-1.89096" width="12.8585" height="12.3471" filterUnits="userSpaceOnUse" color-interpolation-filters="sRGB">
<feFlood flood-opacity="0" result="BackgroundImageFix"/>
<feBlend mode="normal" in="SourceGraphic" in2="BackgroundImageFix" result="shape"/>
<feGaussianBlur stdDeviation="2" result="effect1_foregroundBlur_11_22250"/>
</filter>
<filter id="filter4_f_11_22250" x="13.379" y="14.692" width="5.06091" height="5.0961" filterUnits="userSpaceOnUse" color-interpolation-filters="sRGB">
<feFlood flood-opacity="0" result="BackgroundImageFix"/>
<feBlend mode="normal" in="SourceGraphic" in2="BackgroundImageFix" result="shape"/>
<feGaussianBlur stdDeviation="0.709091" result="effect1_foregroundBlur_11_22250"/>
</filter>
<filter id="filter5_f_11_22250" x="13.0221" y="15.7082" width="4.44061" height="4.61212" filterUnits="userSpaceOnUse" color-interpolation-filters="sRGB">
<feFlood flood-opacity="0" result="BackgroundImageFix"/>
<feBlend mode="normal" in="SourceGraphic" in2="BackgroundImageFix" result="shape"/>
<feGaussianBlur stdDeviation="0.709091" result="effect1_foregroundBlur_11_22250"/>
</filter>
<filter id="filter6_f_11_22250" x="12.0047" y="11.3445" width="4.44061" height="4.61212" filterUnits="userSpaceOnUse" color-interpolation-filters="sRGB">
<feFlood flood-opacity="0" result="BackgroundImageFix"/>
<feBlend mode="normal" in="SourceGraphic" in2="BackgroundImageFix" result="shape"/>
<feGaussianBlur stdDeviation="0.709091" result="effect1_foregroundBlur_11_22250"/>
</filter>
<filter id="filter7_f_11_22250" x="10.82" y="11.6273" width="5.28216" height="5.26657" filterUnits="userSpaceOnUse" color-interpolation-filters="sRGB">
<feFlood flood-opacity="0" result="BackgroundImageFix"/>
<feBlend mode="normal" in="SourceGraphic" in2="BackgroundImageFix" result="shape"/>
<feGaussianBlur stdDeviation="0.709091" result="effect1_foregroundBlur_11_22250"/>
</filter>
<filter id="filter8_f_11_22250" x="12.7151" y="10.8777" width="7.01372" height="6.73479" filterUnits="userSpaceOnUse" color-interpolation-filters="sRGB">
<feFlood flood-opacity="0" result="BackgroundImageFix"/>
<feBlend mode="normal" in="SourceGraphic" in2="BackgroundImageFix" result="shape"/>
<feGaussianBlur stdDeviation="1.09091" result="effect1_foregroundBlur_11_22250"/>
</filter>
<linearGradient id="paint0_linear_11_22250" x1="7" y1="2" x2="7" y2="12" gradientUnits="userSpaceOnUse">
<stop stop-color="#FD9376"/>
<stop offset="1" stop-color="#FEDBA9"/>
</linearGradient>
<linearGradient id="paint1_linear_11_22250" x1="3.89026" y1="7.76675" x2="3.89026" y2="14.409" gradientUnits="userSpaceOnUse">
<stop stop-color="#F835FF"/>
<stop offset="1" stop-color="#8ADCFF"/>
</linearGradient>
<linearGradient id="paint2_linear_11_22250" x1="10" y1="4" x2="10.1831" y2="6.24969" gradientUnits="userSpaceOnUse">
<stop stop-color="#54FFB2"/>
<stop offset="1" stop-color="#FF7D7D" stop-opacity="0"/>
</linearGradient>
<linearGradient id="paint3_linear_11_22250" x1="14.7273" y1="13" x2="14.7273" y2="18.4545" gradientUnits="userSpaceOnUse">
<stop stop-color="#FD9376"/>
<stop offset="1" stop-color="#FEDBA9"/>
</linearGradient>
<linearGradient id="paint4_linear_11_22250" x1="16.3638" y1="14.0909" x2="16.4637" y2="15.318" gradientUnits="userSpaceOnUse">
<stop stop-color="#54FFBE"/>
<stop offset="1" stop-color="#D6FF7D" stop-opacity="0"/>
</linearGradient>
</defs>
</svg>
